<?xml version="1.0" encoding="UTF-8" standalone="no"?>
<!DOCTYPE svg PUBLIC "-//W3C//DTD SVG 1.1//EN"
 "http://www.w3.org/Graphics/SVG/1.1/DTD/svg11.dtd">
<!-- Generated by graphviz version 13.1.2 (20250808.2320)
 -->
<!-- Title: bookinfo.cpp Pages: 1 -->
<svg width="208pt" height="140pt"
 viewBox="0.00 0.00 208.00 140.00" xmlns="http://www.w3.org/2000/svg" xmlns:xlink="http://www.w3.org/1999/xlink">
<g id="graph0" class="graph" transform="scale(1 1) rotate(0) translate(4 136)">
<title>bookinfo.cpp</title>
<!-- Node1 -->
<g id="Node000001" class="node">
<title>Node1</title>
<g id="a_Node000001"><a xlink:title=" ">
<polygon fill="#999999" stroke="#666666" points="132.5,-132 61,-132 61,-112 132.5,-112 132.5,-132"/>
<text xml:space="preserve" text-anchor="middle" x="96.75" y="-118.5" font-family="Helvetica,sans-Serif" font-size="10.00">bookinfo.cpp</text>
</a>
</g>
</g>
<!-- Node2 -->
<g id="Node000002" class="node">
<title>Node2</title>
<g id="a_Node000002"><a xlink:title=" ">
<polygon fill="#e0e0e0" stroke="#999999" points="53.5,-76 0,-76 0,-56 53.5,-56 53.5,-76"/>
<text xml:space="preserve" text-anchor="middle" x="26.75" y="-62.5" font-family="Helvetica,sans-Serif" font-size="10.00">iostream</text>
</a>
</g>
</g>
<!-- Node1&#45;&gt;Node2 -->
<g id="edge1_Node000001_Node000002" class="edge">
<title>Node1&#45;&gt;Node2</title>
<g id="a_edge1_Node000001_Node000002"><a xlink:title=" ">
<path fill="none" stroke="#63b8ff" d="M84.56,-111.59C74.42,-103.77 59.76,-92.46 47.74,-83.19"/>
<polygon fill="#63b8ff" stroke="#63b8ff" points="50.06,-80.56 40,-77.22 45.78,-86.1 50.06,-80.56"/>
</a>
</g>
</g>
<!-- Node3 -->
<g id="Node000003" class="node">
<title>Node3</title>
<g id="a_Node000003"><a xlink:title=" ">
<polygon fill="#e0e0e0" stroke="#999999" points="121.62,-76 71.88,-76 71.88,-56 121.62,-56 121.62,-76"/>
<text xml:space="preserve" text-anchor="middle" x="96.75" y="-62.5" font-family="Helvetica,sans-Serif" font-size="10.00">iomanip</text>
</a>
</g>
</g>
<!-- Node1&#45;&gt;Node3 -->
<g id="edge2_Node000001_Node000003" class="edge">
<title>Node1&#45;&gt;Node3</title>
<g id="a_edge2_Node000001_Node000003"><a xlink:title=" ">
<path fill="none" stroke="#63b8ff" d="M96.75,-111.59C96.75,-105.01 96.75,-95.96 96.75,-87.73"/>
<polygon fill="#63b8ff" stroke="#63b8ff" points="100.25,-87.81 96.75,-77.81 93.25,-87.81 100.25,-87.81"/>
</a>
</g>
</g>
<!-- Node4 -->
<g id="Node000004" class="node">
<title>Node4</title>
<g id="a_Node000004"><a xlink:href="bookinfo_8h.html" target="_top" xlink:title=" ">
<polygon fill="white" stroke="#666666" points="200.25,-76 139.25,-76 139.25,-56 200.25,-56 200.25,-76"/>
<text xml:space="preserve" text-anchor="middle" x="169.75" y="-62.5" font-family="Helvetica,sans-Serif" font-size="10.00">bookinfo.h</text>
</a>
</g>
</g>
<!-- Node1&#45;&gt;Node4 -->
<g id="edge3_Node000001_Node000004" class="edge">
<title>Node1&#45;&gt;Node4</title>
<g id="a_edge3_Node000001_Node000004"><a xlink:title=" ">
<path fill="none" stroke="#63b8ff" d="M109.47,-111.59C120.14,-103.7 135.63,-92.24 148.23,-82.92"/>
<polygon fill="#63b8ff" stroke="#63b8ff" points="150.01,-85.96 155.96,-77.2 145.84,-80.33 150.01,-85.96"/>
</a>
</g>
</g>
<!-- Node5 -->
<g id="Node000005" class="node">
<title>Node5</title>
<g id="a_Node000005"><a xlink:title=" ">
<polygon fill="#e0e0e0" stroke="#999999" points="189.75,-20 149.75,-20 149.75,0 189.75,0 189.75,-20"/>
<text xml:space="preserve" text-anchor="middle" x="169.75" y="-6.5" font-family="Helvetica,sans-Serif" font-size="10.00">string</text>
</a>
</g>
</g>
<!-- Node4&#45;&gt;Node5 -->
<g id="edge4_Node000004_Node000005" class="edge">
<title>Node4&#45;&gt;Node5</title>
<g id="a_edge4_Node000004_Node000005"><a xlink:title=" ">
<path fill="none" stroke="#63b8ff" d="M169.75,-55.59C169.75,-49.01 169.75,-39.96 169.75,-31.73"/>
<polygon fill="#63b8ff" stroke="#63b8ff" points="173.25,-31.81 169.75,-21.81 166.25,-31.81 173.25,-31.81"/>
</a>
</g>
</g>
</g>
</svg>
