<?xml version="1.0" encoding="UTF-8" standalone="no"?>
<!DOCTYPE svg PUBLIC "-//W3C//DTD SVG 1.1//EN"
 "http://www.w3.org/Graphics/SVG/1.1/DTD/svg11.dtd">
<!-- Generated by graphviz version 13.1.2 (20250808.2320)
 -->
<!-- Title: bookinfo.h Pages: 1 -->
<svg width="242pt" height="140pt"
 viewBox="0.00 0.00 242.00 140.00" xmlns="http://www.w3.org/2000/svg" xmlns:xlink="http://www.w3.org/1999/xlink">
<g id="graph0" class="graph" transform="scale(1 1) rotate(0) translate(4 136)">
<title>bookinfo.h</title>
<!-- Node1 -->
<g id="Node000001" class="node">
<title>Node1</title>
<g id="a_Node000001"><a xlink:title=" ">
<polygon fill="#999999" stroke="#666666" points="130.25,-132 69.25,-132 69.25,-112 130.25,-112 130.25,-132"/>
<text xml:space="preserve" text-anchor="middle" x="99.75" y="-118.5" font-family="Helvetica,sans-Serif" font-size="10.00">bookinfo.h</text>
</a>
</g>
</g>
<!-- Node2 -->
<g id="Node000002" class="node">
<title>Node2</title>
<g id="a_Node000002"><a xlink:href="bookinfo_8cpp.html" target="_top" xlink:title=" ">
<polygon fill="white" stroke="#666666" points="71.5,-76 0,-76 0,-56 71.5,-56 71.5,-76"/>
<text xml:space="preserve" text-anchor="middle" x="35.75" y="-62.5" font-family="Helvetica,sans-Serif" font-size="10.00">bookinfo.cpp</text>
</a>
</g>
</g>
<!-- Node1&#45;&gt;Node2 -->
<g id="edge1_Node000001_Node000002" class="edge">
<title>Node1&#45;&gt;Node2</title>
<g id="a_edge1_Node000001_Node000002"><a xlink:title=" ">
<path fill="none" stroke="#63b8ff" d="M80.08,-104.4C69.13,-95.17 55.91,-84.01 46.77,-76.3"/>
<polygon fill="#63b8ff" stroke="#63b8ff" points="77.55,-106.84 87.45,-110.62 82.06,-101.49 77.55,-106.84"/>
</a>
</g>
</g>
<!-- Node3 -->
<g id="Node000003" class="node">
<title>Node3</title>
<g id="a_Node000003"><a xlink:href="invmenu_8cpp.html" target="_top" xlink:title=" ">
<polygon fill="white" stroke="#666666" points="135.5,-20 64,-20 64,0 135.5,0 135.5,-20"/>
<text xml:space="preserve" text-anchor="middle" x="99.75" y="-6.5" font-family="Helvetica,sans-Serif" font-size="10.00">invmenu.cpp</text>
</a>
</g>
</g>
<!-- Node1&#45;&gt;Node3 -->
<g id="edge2_Node000001_Node000003" class="edge">
<title>Node1&#45;&gt;Node3</title>
<g id="a_edge2_Node000001_Node000003"><a xlink:title=" ">
<path fill="none" stroke="#63b8ff" d="M99.75,-100.31C99.75,-76.36 99.75,-37.95 99.75,-20.35"/>
<polygon fill="#63b8ff" stroke="#63b8ff" points="96.25,-100.11 99.75,-110.11 103.25,-100.11 96.25,-100.11"/>
</a>
</g>
</g>
<!-- Node4 -->
<g id="Node000004" class="node">
<title>Node4</title>
<g id="a_Node000004"><a xlink:href="invmenu_8h.html" target="_top" xlink:title=" ">
<polygon fill="white" stroke="#666666" points="189.25,-76 128.25,-76 128.25,-56 189.25,-56 189.25,-76"/>
<text xml:space="preserve" text-anchor="middle" x="158.75" y="-62.5" font-family="Helvetica,sans-Serif" font-size="10.00">invmenu.h</text>
</a>
</g>
</g>
<!-- Node1&#45;&gt;Node4 -->
<g id="edge3_Node000001_Node000004" class="edge">
<title>Node1&#45;&gt;Node4</title>
<g id="a_edge3_Node000001_Node000004"><a xlink:title=" ">
<path fill="none" stroke="#63b8ff" d="M118.49,-103.85C128.46,-94.72 140.33,-83.86 148.59,-76.3"/>
<polygon fill="#63b8ff" stroke="#63b8ff" points="116.16,-101.24 111.14,-110.57 120.88,-106.4 116.16,-101.24"/>
</a>
</g>
</g>
<!-- Node4&#45;&gt;Node3 -->
<g id="edge4_Node000004_Node000003" class="edge">
<title>Node4&#45;&gt;Node3</title>
<g id="a_edge4_Node000004_Node000003"><a xlink:title=" ">
<path fill="none" stroke="#63b8ff" d="M140.01,-47.85C130.04,-38.72 118.17,-27.86 109.91,-20.3"/>
<polygon fill="#63b8ff" stroke="#63b8ff" points="137.62,-50.4 147.36,-54.57 142.34,-45.24 137.62,-50.4"/>
</a>
</g>
</g>
<!-- Node5 -->
<g id="Node000005" class="node">
<title>Node5</title>
<g id="a_Node000005"><a xlink:href="mainmenu_8cpp.html" target="_top" xlink:title=" ">
<polygon fill="white" stroke="#666666" points="233.62,-20 153.88,-20 153.88,0 233.62,0 233.62,-20"/>
<text xml:space="preserve" text-anchor="middle" x="193.75" y="-6.5" font-family="Helvetica,sans-Serif" font-size="10.00">mainmenu.cpp</text>
</a>
</g>
</g>
<!-- Node4&#45;&gt;Node5 -->
<g id="edge5_Node000004_Node000005" class="edge">
<title>Node4&#45;&gt;Node5</title>
<g id="a_edge5_Node000004_Node000005"><a xlink:title=" ">
<path fill="none" stroke="#63b8ff" d="M170.97,-46.15C176.64,-37.4 183.13,-27.39 187.72,-20.3"/>
<polygon fill="#63b8ff" stroke="#63b8ff" points="168.17,-44.03 165.67,-54.32 174.05,-47.84 168.17,-44.03"/>
</a>
</g>
</g>
</g>
</svg>
