<?xml version="1.0" encoding="UTF-8" standalone="no"?>
<!DOCTYPE svg PUBLIC "-//W3C//DTD SVG 1.1//EN"
 "http://www.w3.org/Graphics/SVG/1.1/DTD/svg11.dtd">
<!-- Generated by graphviz version 13.1.2 (20250808.2320)
 -->
<!-- Title: cashier.h Pages: 1 -->
<svg width="172pt" height="84pt"
 viewBox="0.00 0.00 172.00 84.00" xmlns="http://www.w3.org/2000/svg" xmlns:xlink="http://www.w3.org/1999/xlink">
<g id="graph0" class="graph" transform="scale(1 1) rotate(0) translate(4 80)">
<title>cashier.h</title>
<!-- Node1 -->
<g id="Node000001" class="node">
<title>Node1</title>
<g id="a_Node000001"><a xlink:title=" ">
<polygon fill="#999999" stroke="#666666" points="106,-76 50.25,-76 50.25,-56 106,-56 106,-76"/>
<text xml:space="preserve" text-anchor="middle" x="78.12" y="-62.5" font-family="Helvetica,sans-Serif" font-size="10.00">cashier.h</text>
</a>
</g>
</g>
<!-- Node2 -->
<g id="Node000002" class="node">
<title>Node2</title>
<g id="a_Node000002"><a xlink:href="cashier_8cpp.html" target="_top" xlink:title=" ">
<polygon fill="white" stroke="#666666" points="66.25,-20 0,-20 0,0 66.25,0 66.25,-20"/>
<text xml:space="preserve" text-anchor="middle" x="33.12" y="-6.5" font-family="Helvetica,sans-Serif" font-size="10.00">cashier.cpp</text>
</a>
</g>
</g>
<!-- Node1&#45;&gt;Node2 -->
<g id="edge1_Node000001_Node000002" class="edge">
<title>Node1&#45;&gt;Node2</title>
<g id="a_edge1_Node000001_Node000002"><a xlink:title=" ">
<path fill="none" stroke="#63b8ff" d="M63.13,-47C55.67,-38.06 46.98,-27.62 40.87,-20.3"/>
<polygon fill="#63b8ff" stroke="#63b8ff" points="60.23,-48.99 69.32,-54.43 65.6,-44.51 60.23,-48.99"/>
</a>
</g>
</g>
<!-- Node3 -->
<g id="Node000003" class="node">
<title>Node3</title>
<g id="a_Node000003"><a xlink:href="mainmenu_8cpp.html" target="_top" xlink:title=" ">
<polygon fill="white" stroke="#666666" points="164,-20 84.25,-20 84.25,0 164,0 164,-20"/>
<text xml:space="preserve" text-anchor="middle" x="124.12" y="-6.5" font-family="Helvetica,sans-Serif" font-size="10.00">mainmenu.cpp</text>
</a>
</g>
</g>
<!-- Node1&#45;&gt;Node3 -->
<g id="edge2_Node000001_Node000003" class="edge">
<title>Node1&#45;&gt;Node3</title>
<g id="a_edge2_Node000001_Node000003"><a xlink:title=" ">
<path fill="none" stroke="#63b8ff" d="M93.46,-47C101.08,-38.06 109.96,-27.62 116.2,-20.3"/>
<polygon fill="#63b8ff" stroke="#63b8ff" points="90.94,-44.56 87.12,-54.44 96.27,-49.1 90.94,-44.56"/>
</a>
</g>
</g>
</g>
</svg>
