<?xml version="1.0" encoding="UTF-8" standalone="no"?>
<!DOCTYPE svg PUBLIC "-//W3C//DTD SVG 1.1//EN"
 "http://www.w3.org/Graphics/SVG/1.1/DTD/svg11.dtd">
<!-- Generated by graphviz version 13.1.2 (20250808.2320)
 -->
<!-- Title: cashier.cpp Pages: 1 -->
<svg width="369pt" height="140pt"
 viewBox="0.00 0.00 369.00 140.00" xmlns="http://www.w3.org/2000/svg" xmlns:xlink="http://www.w3.org/1999/xlink">
<g id="graph0" class="graph" transform="scale(1 1) rotate(0) translate(4 136)">
<title>cashier.cpp</title>
<!-- Node1 -->
<g id="Node000001" class="node">
<title>Node1</title>
<g id="a_Node000001"><a xlink:title=" ">
<polygon fill="#999999" stroke="#666666" points="207,-132 140.75,-132 140.75,-112 207,-112 207,-132"/>
<text xml:space="preserve" text-anchor="middle" x="173.88" y="-118.5" font-family="Helvetica,sans-Serif" font-size="10.00">cashier.cpp</text>
</a>
</g>
</g>
<!-- Node2 -->
<g id="Node000002" class="node">
<title>Node2</title>
<g id="a_Node000002"><a xlink:href="cashier_8h.html" target="_top" xlink:title=" ">
<polygon fill="white" stroke="#666666" points="55.75,-76 0,-76 0,-56 55.75,-56 55.75,-76"/>
<text xml:space="preserve" text-anchor="middle" x="27.88" y="-62.5" font-family="Helvetica,sans-Serif" font-size="10.00">cashier.h</text>
</a>
</g>
</g>
<!-- Node1&#45;&gt;Node2 -->
<g id="edge1_Node000001_Node000002" class="edge">
<title>Node1&#45;&gt;Node2</title>
<g id="a_edge1_Node000001_Node000002"><a xlink:title=" ">
<path fill="none" stroke="#63b8ff" d="M148.44,-111.59C125.14,-102.97 90.38,-90.12 64.16,-80.42"/>
<polygon fill="#63b8ff" stroke="#63b8ff" points="65.52,-77.19 54.92,-77 63.09,-83.76 65.52,-77.19"/>
</a>
</g>
</g>
<!-- Node3 -->
<g id="Node000003" class="node">
<title>Node3</title>
<g id="a_Node000003"><a xlink:title=" ">
<polygon fill="#e0e0e0" stroke="#999999" points="75.88,-20 35.88,-20 35.88,0 75.88,0 75.88,-20"/>
<text xml:space="preserve" text-anchor="middle" x="55.88" y="-6.5" font-family="Helvetica,sans-Serif" font-size="10.00">string</text>
</a>
</g>
</g>
<!-- Node1&#45;&gt;Node3 -->
<g id="edge5_Node000001_Node000003" class="edge">
<title>Node1&#45;&gt;Node3</title>
<g id="a_edge5_Node000001_Node000003"><a xlink:title=" ">
<path fill="none" stroke="#63b8ff" d="M155.03,-111.63C139.88,-103.53 118.61,-90.8 102.88,-76 88.33,-62.31 75.33,-43.56 66.71,-29.71"/>
<polygon fill="#63b8ff" stroke="#63b8ff" points="69.95,-28.31 61.79,-21.54 63.95,-31.92 69.95,-28.31"/>
</a>
</g>
</g>
<!-- Node4 -->
<g id="Node000004" class="node">
<title>Node4</title>
<g id="a_Node000004"><a xlink:title=" ">
<polygon fill="#e0e0e0" stroke="#999999" points="165.62,-76 112.12,-76 112.12,-56 165.62,-56 165.62,-76"/>
<text xml:space="preserve" text-anchor="middle" x="138.88" y="-62.5" font-family="Helvetica,sans-Serif" font-size="10.00">iostream</text>
</a>
</g>
</g>
<!-- Node1&#45;&gt;Node4 -->
<g id="edge3_Node000001_Node000004" class="edge">
<title>Node1&#45;&gt;Node4</title>
<g id="a_edge3_Node000001_Node000004"><a xlink:title=" ">
<path fill="none" stroke="#63b8ff" d="M167.78,-111.59C163.16,-104.47 156.67,-94.45 151.01,-85.72"/>
<polygon fill="#63b8ff" stroke="#63b8ff" points="154.1,-84.06 145.72,-77.57 148.23,-87.86 154.1,-84.06"/>
</a>
</g>
</g>
<!-- Node5 -->
<g id="Node000005" class="node">
<title>Node5</title>
<g id="a_Node000005"><a xlink:title=" ">
<polygon fill="#e0e0e0" stroke="#999999" points="233.75,-76 184,-76 184,-56 233.75,-56 233.75,-76"/>
<text xml:space="preserve" text-anchor="middle" x="208.88" y="-62.5" font-family="Helvetica,sans-Serif" font-size="10.00">iomanip</text>
</a>
</g>
</g>
<!-- Node1&#45;&gt;Node5 -->
<g id="edge4_Node000001_Node000005" class="edge">
<title>Node1&#45;&gt;Node5</title>
<g id="a_edge4_Node000001_Node000005"><a xlink:title=" ">
<path fill="none" stroke="#63b8ff" d="M179.97,-111.59C184.59,-104.47 191.08,-94.45 196.74,-85.72"/>
<polygon fill="#63b8ff" stroke="#63b8ff" points="199.52,-87.86 202.03,-77.57 193.65,-84.06 199.52,-87.86"/>
</a>
</g>
</g>
<!-- Node6 -->
<g id="Node000006" class="node">
<title>Node6</title>
<g id="a_Node000006"><a xlink:title=" ">
<polygon fill="#e0e0e0" stroke="#999999" points="303.5,-76 252.25,-76 252.25,-56 303.5,-56 303.5,-76"/>
<text xml:space="preserve" text-anchor="middle" x="277.88" y="-62.5" font-family="Helvetica,sans-Serif" font-size="10.00">sstream</text>
</a>
</g>
</g>
<!-- Node1&#45;&gt;Node6 -->
<g id="edge6_Node000001_Node000006" class="edge">
<title>Node1&#45;&gt;Node6</title>
<g id="a_edge6_Node000001_Node000006"><a xlink:title=" ">
<path fill="none" stroke="#63b8ff" d="M191.99,-111.59C207.85,-103.36 231.16,-91.26 249.49,-81.74"/>
<polygon fill="#63b8ff" stroke="#63b8ff" points="251.01,-84.89 258.27,-77.18 247.79,-78.68 251.01,-84.89"/>
</a>
</g>
</g>
<!-- Node7 -->
<g id="Node000007" class="node">
<title>Node7</title>
<g id="a_Node000007"><a xlink:title=" ">
<polygon fill="#e0e0e0" stroke="#999999" points="360.5,-76 321.25,-76 321.25,-56 360.5,-56 360.5,-76"/>
<text xml:space="preserve" text-anchor="middle" x="340.88" y="-62.5" font-family="Helvetica,sans-Serif" font-size="10.00">limits</text>
</a>
</g>
</g>
<!-- Node1&#45;&gt;Node7 -->
<g id="edge7_Node000001_Node000007" class="edge">
<title>Node1&#45;&gt;Node7</title>
<g id="a_edge7_Node000001_Node000007"><a xlink:title=" ">
<path fill="none" stroke="#63b8ff" d="M202.96,-111.59C232.96,-101.89 279.55,-86.83 310.14,-76.94"/>
<polygon fill="#63b8ff" stroke="#63b8ff" points="311.13,-80.3 319.57,-73.89 308.98,-73.64 311.13,-80.3"/>
</a>
</g>
</g>
<!-- Node2&#45;&gt;Node3 -->
<g id="edge2_Node000002_Node000003" class="edge">
<title>Node2&#45;&gt;Node3</title>
<g id="a_edge2_Node000002_Node000003"><a xlink:title=" ">
<path fill="none" stroke="#63b8ff" d="M32.75,-55.59C36.37,-48.63 41.42,-38.89 45.87,-30.29"/>
<polygon fill="#63b8ff" stroke="#63b8ff" points="48.86,-32.13 50.36,-21.64 42.65,-28.91 48.86,-32.13"/>
</a>
</g>
</g>
</g>
</svg>
