<?xml version="1.0" encoding="UTF-8" standalone="no"?>
<!DOCTYPE svg PUBLIC "-//W3C//DTD SVG 1.1//EN"
 "http://www.w3.org/Graphics/SVG/1.1/DTD/svg11.dtd">
<!-- Generated by graphviz version 13.1.2 (20250808.2320)
 -->
<!-- Title: invmenu.h Pages: 1 -->
<svg width="130pt" height="140pt"
 viewBox="0.00 0.00 130.00 140.00" xmlns="http://www.w3.org/2000/svg" xmlns:xlink="http://www.w3.org/1999/xlink">
<g id="graph0" class="graph" transform="scale(1 1) rotate(0) translate(4 136)">
<title>invmenu.h</title>
<!-- Node1 -->
<g id="Node000001" class="node">
<title>Node1</title>
<g id="a_Node000001"><a xlink:title=" ">
<polygon fill="#999999" stroke="#666666" points="87,-132 26,-132 26,-112 87,-112 87,-132"/>
<text xml:space="preserve" text-anchor="middle" x="56.5" y="-118.5" font-family="Helvetica,sans-Serif" font-size="10.00">invmenu.h</text>
</a>
</g>
</g>
<!-- Node2 -->
<g id="Node000002" class="node">
<title>Node2</title>
<g id="a_Node000002"><a xlink:title=" ">
<polygon fill="#e0e0e0" stroke="#999999" points="43,-76 0,-76 0,-56 43,-56 43,-76"/>
<text xml:space="preserve" text-anchor="middle" x="21.5" y="-62.5" font-family="Helvetica,sans-Serif" font-size="10.00">vector</text>
</a>
</g>
</g>
<!-- Node1&#45;&gt;Node2 -->
<g id="edge1_Node000001_Node000002" class="edge">
<title>Node1&#45;&gt;Node2</title>
<g id="a_edge1_Node000001_Node000002"><a xlink:title=" ">
<path fill="none" stroke="#63b8ff" d="M50.4,-111.59C45.79,-104.47 39.29,-94.45 33.63,-85.72"/>
<polygon fill="#63b8ff" stroke="#63b8ff" points="36.73,-84.06 28.35,-77.57 30.85,-87.86 36.73,-84.06"/>
</a>
</g>
</g>
<!-- Node3 -->
<g id="Node000003" class="node">
<title>Node3</title>
<g id="a_Node000003"><a xlink:href="bookinfo_8h.html" target="_top" xlink:title=" ">
<polygon fill="white" stroke="#666666" points="122,-76 61,-76 61,-56 122,-56 122,-76"/>
<text xml:space="preserve" text-anchor="middle" x="91.5" y="-62.5" font-family="Helvetica,sans-Serif" font-size="10.00">bookinfo.h</text>
</a>
</g>
</g>
<!-- Node1&#45;&gt;Node3 -->
<g id="edge2_Node000001_Node000003" class="edge">
<title>Node1&#45;&gt;Node3</title>
<g id="a_edge2_Node000001_Node000003"><a xlink:title=" ">
<path fill="none" stroke="#63b8ff" d="M62.6,-111.59C67.21,-104.47 73.71,-94.45 79.37,-85.72"/>
<polygon fill="#63b8ff" stroke="#63b8ff" points="82.15,-87.86 84.65,-77.57 76.27,-84.06 82.15,-87.86"/>
</a>
</g>
</g>
<!-- Node4 -->
<g id="Node000004" class="node">
<title>Node4</title>
<g id="a_Node000004"><a xlink:title=" ">
<polygon fill="#e0e0e0" stroke="#999999" points="111.5,-20 71.5,-20 71.5,0 111.5,0 111.5,-20"/>
<text xml:space="preserve" text-anchor="middle" x="91.5" y="-6.5" font-family="Helvetica,sans-Serif" font-size="10.00">string</text>
</a>
</g>
</g>
<!-- Node3&#45;&gt;Node4 -->
<g id="edge3_Node000003_Node000004" class="edge">
<title>Node3&#45;&gt;Node4</title>
<g id="a_edge3_Node000003_Node000004"><a xlink:title=" ">
<path fill="none" stroke="#63b8ff" d="M91.5,-55.59C91.5,-49.01 91.5,-39.96 91.5,-31.73"/>
<polygon fill="#63b8ff" stroke="#63b8ff" points="95,-31.81 91.5,-21.81 88,-31.81 95,-31.81"/>
</a>
</g>
</g>
</g>
</svg>
