<?xml version="1.0" encoding="UTF-8" standalone="no"?>
<!DOCTYPE svg PUBLIC "-//W3C//DTD SVG 1.1//EN"
 "http://www.w3.org/Graphics/SVG/1.1/DTD/svg11.dtd">
<!-- Generated by graphviz version 13.1.2 (20250808.2320)
 -->
<!-- Title: invmenu.h Pages: 1 -->
<svg width="178pt" height="84pt"
 viewBox="0.00 0.00 178.00 84.00" xmlns="http://www.w3.org/2000/svg" xmlns:xlink="http://www.w3.org/1999/xlink">
<g id="graph0" class="graph" transform="scale(1 1) rotate(0) translate(4 80)">
<title>invmenu.h</title>
<!-- Node1 -->
<g id="Node000001" class="node">
<title>Node1</title>
<g id="a_Node000001"><a xlink:title=" ">
<polygon fill="#999999" stroke="#666666" points="113.25,-76 52.25,-76 52.25,-56 113.25,-56 113.25,-76"/>
<text xml:space="preserve" text-anchor="middle" x="82.75" y="-62.5" font-family="Helvetica,sans-Serif" font-size="10.00">invmenu.h</text>
</a>
</g>
</g>
<!-- Node2 -->
<g id="Node000002" class="node">
<title>Node2</title>
<g id="a_Node000002"><a xlink:href="invmenu_8cpp.html" target="_top" xlink:title=" ">
<polygon fill="white" stroke="#666666" points="71.5,-20 0,-20 0,0 71.5,0 71.5,-20"/>
<text xml:space="preserve" text-anchor="middle" x="35.75" y="-6.5" font-family="Helvetica,sans-Serif" font-size="10.00">invmenu.cpp</text>
</a>
</g>
</g>
<!-- Node1&#45;&gt;Node2 -->
<g id="edge1_Node000001_Node000002" class="edge">
<title>Node1&#45;&gt;Node2</title>
<g id="a_edge1_Node000001_Node000002"><a xlink:title=" ">
<path fill="none" stroke="#63b8ff" d="M67.09,-47C59.3,-38.06 50.22,-27.62 43.84,-20.3"/>
<polygon fill="#63b8ff" stroke="#63b8ff" points="64.36,-49.21 73.57,-54.45 69.64,-44.61 64.36,-49.21"/>
</a>
</g>
</g>
<!-- Node3 -->
<g id="Node000003" class="node">
<title>Node3</title>
<g id="a_Node000003"><a xlink:href="mainmenu_8cpp.html" target="_top" xlink:title=" ">
<polygon fill="white" stroke="#666666" points="169.62,-20 89.88,-20 89.88,0 169.62,0 169.62,-20"/>
<text xml:space="preserve" text-anchor="middle" x="129.75" y="-6.5" font-family="Helvetica,sans-Serif" font-size="10.00">mainmenu.cpp</text>
</a>
</g>
</g>
<!-- Node1&#45;&gt;Node3 -->
<g id="edge2_Node000001_Node000003" class="edge">
<title>Node1&#45;&gt;Node3</title>
<g id="a_edge2_Node000001_Node000003"><a xlink:title=" ">
<path fill="none" stroke="#63b8ff" d="M98.41,-47C106.2,-38.06 115.28,-27.62 121.66,-20.3"/>
<polygon fill="#63b8ff" stroke="#63b8ff" points="95.86,-44.61 91.93,-54.45 101.14,-49.21 95.86,-44.61"/>
</a>
</g>
</g>
</g>
</svg>
