<?xml version="1.0" encoding="UTF-8" standalone="no"?>
<!DOCTYPE svg PUBLIC "-//W3C//DTD SVG 1.1//EN"
 "http://www.w3.org/Graphics/SVG/1.1/DTD/svg11.dtd">
<!-- Generated by graphviz version 13.1.2 (20250808.2320)
 -->
<!-- Title: invmenu.cpp Pages: 1 -->
<svg width="488pt" height="196pt"
 viewBox="0.00 0.00 488.00 196.00" xmlns="http://www.w3.org/2000/svg" xmlns:xlink="http://www.w3.org/1999/xlink">
<g id="graph0" class="graph" transform="scale(1 1) rotate(0) translate(4 192)">
<title>invmenu.cpp</title>
<!-- Node1 -->
<g id="Node000001" class="node">
<title>Node1</title>
<g id="a_Node000001"><a xlink:title=" ">
<polygon fill="#999999" stroke="#666666" points="275.5,-188 204,-188 204,-168 275.5,-168 275.5,-188"/>
<text xml:space="preserve" text-anchor="middle" x="239.75" y="-174.5" font-family="Helvetica,sans-Serif" font-size="10.00">invmenu.cpp</text>
</a>
</g>
</g>
<!-- Node2 -->
<g id="Node000002" class="node">
<title>Node2</title>
<g id="a_Node000002"><a xlink:href="menuhelpers_8h.html" target="_top" xlink:title="Provides helper functions for printing formatted menus and UI layout.">
<polygon fill="white" stroke="#666666" points="123.62,-132 43.88,-132 43.88,-112 123.62,-112 123.62,-132"/>
<text xml:space="preserve" text-anchor="middle" x="83.75" y="-118.5" font-family="Helvetica,sans-Serif" font-size="10.00">menuhelpers.h</text>
</a>
</g>
</g>
<!-- Node1&#45;&gt;Node2 -->
<g id="edge1_Node000001_Node000002" class="edge">
<title>Node1&#45;&gt;Node2</title>
<g id="a_edge1_Node000001_Node000002"><a xlink:title=" ">
<path fill="none" stroke="#63b8ff" d="M212.58,-167.59C187.45,-158.9 149.87,-145.89 121.77,-136.16"/>
<polygon fill="#63b8ff" stroke="#63b8ff" points="123.16,-132.94 112.57,-132.97 120.87,-139.55 123.16,-132.94"/>
</a>
</g>
</g>
<!-- Node3 -->
<g id="Node000003" class="node">
<title>Node3</title>
<g id="a_Node000003"><a xlink:title=" ">
<polygon fill="#e0e0e0" stroke="#999999" points="53.5,-76 0,-76 0,-56 53.5,-56 53.5,-76"/>
<text xml:space="preserve" text-anchor="middle" x="26.75" y="-62.5" font-family="Helvetica,sans-Serif" font-size="10.00">iostream</text>
</a>
</g>
</g>
<!-- Node1&#45;&gt;Node3 -->
<g id="edge9_Node000001_Node000003" class="edge">
<title>Node1&#45;&gt;Node3</title>
<g id="a_edge9_Node000001_Node000003"><a xlink:title=" ">
<path fill="none" stroke="#63b8ff" d="M203.86,-174.04C151.27,-168.92 57.07,-156.52 34.75,-132 23.97,-120.17 22.63,-101.69 23.6,-87.46"/>
<polygon fill="#63b8ff" stroke="#63b8ff" points="27.05,-88.15 24.7,-77.82 20.09,-87.36 27.05,-88.15"/>
</a>
</g>
</g>
<!-- Node4 -->
<g id="Node000004" class="node">
<title>Node4</title>
<g id="a_Node000004"><a xlink:title=" ">
<polygon fill="#e0e0e0" stroke="#999999" points="171.75,-20 131.75,-20 131.75,0 171.75,0 171.75,-20"/>
<text xml:space="preserve" text-anchor="middle" x="151.75" y="-6.5" font-family="Helvetica,sans-Serif" font-size="10.00">string</text>
</a>
</g>
</g>
<!-- Node1&#45;&gt;Node4 -->
<g id="edge10_Node000001_Node000004" class="edge">
<title>Node1&#45;&gt;Node4</title>
<g id="a_edge10_Node000001_Node000004"><a xlink:title=" ">
<path fill="none" stroke="#63b8ff" d="M216.5,-167.58C201.3,-160.19 182.37,-148.39 171.75,-132 151.84,-101.28 149.65,-57.24 150.36,-31.63"/>
<polygon fill="#63b8ff" stroke="#63b8ff" points="153.85,-32.05 150.83,-21.89 146.86,-31.72 153.85,-32.05"/>
</a>
</g>
</g>
<!-- Node5 -->
<g id="Node000005" class="node">
<title>Node5</title>
<g id="a_Node000005"><a xlink:href="invmenu_8h.html" target="_top" xlink:title=" ">
<polygon fill="white" stroke="#666666" points="241.25,-132 180.25,-132 180.25,-112 241.25,-112 241.25,-132"/>
<text xml:space="preserve" text-anchor="middle" x="210.75" y="-118.5" font-family="Helvetica,sans-Serif" font-size="10.00">invmenu.h</text>
</a>
</g>
</g>
<!-- Node1&#45;&gt;Node5 -->
<g id="edge4_Node000001_Node000005" class="edge">
<title>Node1&#45;&gt;Node5</title>
<g id="a_edge4_Node000001_Node000005"><a xlink:title=" ">
<path fill="none" stroke="#63b8ff" d="M234.7,-167.59C230.96,-160.63 225.73,-150.89 221.11,-142.29"/>
<polygon fill="#63b8ff" stroke="#63b8ff" points="224.27,-140.79 216.46,-133.63 218.11,-144.1 224.27,-140.79"/>
</a>
</g>
</g>
<!-- Node7 -->
<g id="Node000007" class="node">
<title>Node7</title>
<g id="a_Node000007"><a xlink:href="bookinfo_8h.html" target="_top" xlink:title=" ">
<polygon fill="white" stroke="#666666" points="302.25,-76 241.25,-76 241.25,-56 302.25,-56 302.25,-76"/>
<text xml:space="preserve" text-anchor="middle" x="271.75" y="-62.5" font-family="Helvetica,sans-Serif" font-size="10.00">bookinfo.h</text>
</a>
</g>
</g>
<!-- Node1&#45;&gt;Node7 -->
<g id="edge8_Node000001_Node000007" class="edge">
<title>Node1&#45;&gt;Node7</title>
<g id="a_edge8_Node000001_Node000007"><a xlink:title=" ">
<path fill="none" stroke="#63b8ff" d="M242.48,-167.62C247.63,-149.92 258.88,-111.24 265.84,-87.32"/>
<polygon fill="#63b8ff" stroke="#63b8ff" points="269.17,-88.39 268.61,-77.81 262.45,-86.43 269.17,-88.39"/>
</a>
</g>
</g>
<!-- Node8 -->
<g id="Node000008" class="node">
<title>Node8</title>
<g id="a_Node000008"><a xlink:title=" ">
<polygon fill="#e0e0e0" stroke="#999999" points="337.38,-132 298.12,-132 298.12,-112 337.38,-112 337.38,-132"/>
<text xml:space="preserve" text-anchor="middle" x="317.75" y="-118.5" font-family="Helvetica,sans-Serif" font-size="10.00">limits</text>
</a>
</g>
</g>
<!-- Node1&#45;&gt;Node8 -->
<g id="edge11_Node000001_Node000008" class="edge">
<title>Node1&#45;&gt;Node8</title>
<g id="a_edge11_Node000001_Node000008"><a xlink:title=" ">
<path fill="none" stroke="#63b8ff" d="M253.34,-167.59C264.79,-159.67 281.41,-148.16 294.91,-138.82"/>
<polygon fill="#63b8ff" stroke="#63b8ff" points="296.58,-141.91 302.81,-133.34 292.6,-136.16 296.58,-141.91"/>
</a>
</g>
</g>
<!-- Node9 -->
<g id="Node000009" class="node">
<title>Node9</title>
<g id="a_Node000009"><a xlink:title=" ">
<polygon fill="#e0e0e0" stroke="#999999" points="411.62,-132 355.88,-132 355.88,-112 411.62,-112 411.62,-132"/>
<text xml:space="preserve" text-anchor="middle" x="383.75" y="-118.5" font-family="Helvetica,sans-Serif" font-size="10.00">algorithm</text>
</a>
</g>
</g>
<!-- Node1&#45;&gt;Node9 -->
<g id="edge12_Node000001_Node000009" class="edge">
<title>Node1&#45;&gt;Node9</title>
<g id="a_edge12_Node000001_Node000009"><a xlink:title=" ">
<path fill="none" stroke="#63b8ff" d="M264.83,-167.59C287.82,-158.97 322.1,-146.12 347.96,-136.42"/>
<polygon fill="#63b8ff" stroke="#63b8ff" points="348.92,-139.8 357.05,-133.01 346.46,-133.25 348.92,-139.8"/>
</a>
</g>
</g>
<!-- Node10 -->
<g id="Node000010" class="node">
<title>Node10</title>
<g id="a_Node000010"><a xlink:title=" ">
<polygon fill="#e0e0e0" stroke="#999999" points="479.62,-132 429.88,-132 429.88,-112 479.62,-112 479.62,-132"/>
<text xml:space="preserve" text-anchor="middle" x="454.75" y="-118.5" font-family="Helvetica,sans-Serif" font-size="10.00">iomanip</text>
</a>
</g>
</g>
<!-- Node1&#45;&gt;Node10 -->
<g id="edge13_Node000001_Node000010" class="edge">
<title>Node1&#45;&gt;Node10</title>
<g id="a_edge13_Node000001_Node000010"><a xlink:title=" ">
<path fill="none" stroke="#63b8ff" d="M275.85,-168.2C310.13,-159.8 363.38,-146.65 418.47,-132.56"/>
<polygon fill="#63b8ff" stroke="#63b8ff" points="419.23,-135.98 428.04,-130.1 417.49,-129.2 419.23,-135.98"/>
</a>
</g>
</g>
<!-- Node2&#45;&gt;Node3 -->
<g id="edge2_Node000002_Node000003" class="edge">
<title>Node2&#45;&gt;Node3</title>
<g id="a_edge2_Node000002_Node000003"><a xlink:title=" ">
<path fill="none" stroke="#63b8ff" d="M73.82,-111.59C65.81,-104.01 54.33,-93.13 44.72,-84.02"/>
<polygon fill="#63b8ff" stroke="#63b8ff" points="47.33,-81.68 37.66,-77.34 42.52,-86.76 47.33,-81.68"/>
</a>
</g>
</g>
<!-- Node2&#45;&gt;Node4 -->
<g id="edge3_Node000002_Node000004" class="edge">
<title>Node2&#45;&gt;Node4</title>
<g id="a_edge3_Node000002_Node000004"><a xlink:title=" ">
<path fill="none" stroke="#63b8ff" d="M89.55,-111.62C100.69,-93.6 125.28,-53.81 139.99,-30.02"/>
<polygon fill="#63b8ff" stroke="#63b8ff" points="142.89,-31.99 145.17,-21.64 136.94,-28.31 142.89,-31.99"/>
</a>
</g>
</g>
<!-- Node6 -->
<g id="Node000006" class="node">
<title>Node6</title>
<g id="a_Node000006"><a xlink:title=" ">
<polygon fill="#e0e0e0" stroke="#999999" points="223.25,-76 180.25,-76 180.25,-56 223.25,-56 223.25,-76"/>
<text xml:space="preserve" text-anchor="middle" x="201.75" y="-62.5" font-family="Helvetica,sans-Serif" font-size="10.00">vector</text>
</a>
</g>
</g>
<!-- Node5&#45;&gt;Node6 -->
<g id="edge5_Node000005_Node000006" class="edge">
<title>Node5&#45;&gt;Node6</title>
<g id="a_edge5_Node000005_Node000006"><a xlink:title=" ">
<path fill="none" stroke="#63b8ff" d="M209.18,-111.59C208.07,-104.93 206.54,-95.75 205.16,-87.44"/>
<polygon fill="#63b8ff" stroke="#63b8ff" points="208.64,-87.08 203.55,-77.79 201.74,-88.23 208.64,-87.08"/>
</a>
</g>
</g>
<!-- Node5&#45;&gt;Node7 -->
<g id="edge6_Node000005_Node000007" class="edge">
<title>Node5&#45;&gt;Node7</title>
<g id="a_edge6_Node000005_Node000007"><a xlink:title=" ">
<path fill="none" stroke="#63b8ff" d="M221.38,-111.59C230.03,-103.93 242.48,-92.91 252.83,-83.75"/>
<polygon fill="#63b8ff" stroke="#63b8ff" points="254.95,-86.55 260.11,-77.3 250.31,-81.31 254.95,-86.55"/>
</a>
</g>
</g>
<!-- Node7&#45;&gt;Node4 -->
<g id="edge7_Node000007_Node000004" class="edge">
<title>Node7&#45;&gt;Node4</title>
<g id="a_edge7_Node000007_Node000004"><a xlink:title=" ">
<path fill="none" stroke="#63b8ff" d="M250.85,-55.59C231.89,-47.06 203.71,-34.38 182.24,-24.72"/>
<polygon fill="#63b8ff" stroke="#63b8ff" points="183.95,-21.65 173.39,-20.74 181.08,-28.03 183.95,-21.65"/>
</a>
</g>
</g>
</g>
</svg>
