<?xml version="1.0" encoding="UTF-8" standalone="no"?>
<!DOCTYPE svg PUBLIC "-//W3C//DTD SVG 1.1//EN"
 "http://www.w3.org/Graphics/SVG/1.1/DTD/svg11.dtd">
<!-- Generated by graphviz version 13.1.2 (20250808.2320)
 -->
<!-- Title: mainmenu.cpp Pages: 1 -->
<svg width="424pt" height="196pt"
 viewBox="0.00 0.00 424.00 196.00" xmlns="http://www.w3.org/2000/svg" xmlns:xlink="http://www.w3.org/1999/xlink">
<g id="graph0" class="graph" transform="scale(1 1) rotate(0) translate(4 192)">
<title>mainmenu.cpp</title>
<!-- Node1 -->
<g id="Node000001" class="node">
<title>Node1</title>
<g id="a_Node000001"><a xlink:title=" ">
<polygon fill="#999999" stroke="#666666" points="236.62,-188 156.88,-188 156.88,-168 236.62,-168 236.62,-188"/>
<text xml:space="preserve" text-anchor="middle" x="196.75" y="-174.5" font-family="Helvetica,sans-Serif" font-size="10.00">mainmenu.cpp</text>
</a>
</g>
</g>
<!-- Node2 -->
<g id="Node000002" class="node">
<title>Node2</title>
<g id="a_Node000002"><a xlink:href="menuhelpers_8h.html" target="_top" xlink:title="Provides helper functions for printing formatted menus and UI layout.">
<polygon fill="white" stroke="#666666" points="121.62,-132 41.88,-132 41.88,-112 121.62,-112 121.62,-132"/>
<text xml:space="preserve" text-anchor="middle" x="81.75" y="-118.5" font-family="Helvetica,sans-Serif" font-size="10.00">menuhelpers.h</text>
</a>
</g>
</g>
<!-- Node1&#45;&gt;Node2 -->
<g id="edge1_Node000001_Node000002" class="edge">
<title>Node1&#45;&gt;Node2</title>
<g id="a_edge1_Node000001_Node000002"><a xlink:title=" ">
<path fill="none" stroke="#63b8ff" d="M176.72,-167.59C158.94,-159.24 132.68,-146.92 112.29,-137.34"/>
<polygon fill="#63b8ff" stroke="#63b8ff" points="113.85,-134.21 103.31,-133.12 110.87,-140.54 113.85,-134.21"/>
</a>
</g>
</g>
<!-- Node3 -->
<g id="Node000003" class="node">
<title>Node3</title>
<g id="a_Node000003"><a xlink:title=" ">
<polygon fill="#e0e0e0" stroke="#999999" points="53.5,-76 0,-76 0,-56 53.5,-56 53.5,-76"/>
<text xml:space="preserve" text-anchor="middle" x="26.75" y="-62.5" font-family="Helvetica,sans-Serif" font-size="10.00">iostream</text>
</a>
</g>
</g>
<!-- Node1&#45;&gt;Node3 -->
<g id="edge11_Node000001_Node000003" class="edge">
<title>Node1&#45;&gt;Node3</title>
<g id="a_edge11_Node000001_Node000003"><a xlink:title=" ">
<path fill="none" stroke="#63b8ff" d="M156.42,-171.25C113.16,-164.21 48.54,-150.84 32.75,-132 22.5,-119.77 21.71,-101.34 23.07,-87.22"/>
<polygon fill="#63b8ff" stroke="#63b8ff" points="26.49,-88.08 24.43,-77.69 19.56,-87.1 26.49,-88.08"/>
</a>
</g>
</g>
<!-- Node4 -->
<g id="Node000004" class="node">
<title>Node4</title>
<g id="a_Node000004"><a xlink:title=" ">
<polygon fill="#e0e0e0" stroke="#999999" points="192.75,-20 152.75,-20 152.75,0 192.75,0 192.75,-20"/>
<text xml:space="preserve" text-anchor="middle" x="172.75" y="-6.5" font-family="Helvetica,sans-Serif" font-size="10.00">string</text>
</a>
</g>
</g>
<!-- Node1&#45;&gt;Node4 -->
<g id="edge12_Node000001_Node000004" class="edge">
<title>Node1&#45;&gt;Node4</title>
<g id="a_edge12_Node000001_Node000004"><a xlink:title=" ">
<path fill="none" stroke="#63b8ff" d="M191.78,-167.79C181.57,-147.82 159.5,-98.9 163.75,-56 164.55,-47.88 166.16,-39.05 167.79,-31.38"/>
<polygon fill="#63b8ff" stroke="#63b8ff" points="171.18,-32.23 170.01,-21.7 164.36,-30.67 171.18,-32.23"/>
</a>
</g>
</g>
<!-- Node5 -->
<g id="Node000005" class="node">
<title>Node5</title>
<g id="a_Node000005"><a xlink:href="cashier_8h.html" target="_top" xlink:title=" ">
<polygon fill="white" stroke="#666666" points="228.62,-76 172.88,-76 172.88,-56 228.62,-56 228.62,-76"/>
<text xml:space="preserve" text-anchor="middle" x="200.75" y="-62.5" font-family="Helvetica,sans-Serif" font-size="10.00">cashier.h</text>
</a>
</g>
</g>
<!-- Node1&#45;&gt;Node5 -->
<g id="edge4_Node000001_Node000005" class="edge">
<title>Node1&#45;&gt;Node5</title>
<g id="a_edge4_Node000001_Node000005"><a xlink:title=" ">
<path fill="none" stroke="#63b8ff" d="M197.09,-167.62C197.73,-150.01 199.13,-111.59 200,-87.65"/>
<polygon fill="#63b8ff" stroke="#63b8ff" points="203.49,-87.99 200.35,-77.87 196.49,-87.73 203.49,-87.99"/>
</a>
</g>
</g>
<!-- Node6 -->
<g id="Node000006" class="node">
<title>Node6</title>
<g id="a_Node000006"><a xlink:href="invmenu_8h.html" target="_top" xlink:title=" ">
<polygon fill="white" stroke="#666666" points="286.25,-132 225.25,-132 225.25,-112 286.25,-112 286.25,-132"/>
<text xml:space="preserve" text-anchor="middle" x="255.75" y="-118.5" font-family="Helvetica,sans-Serif" font-size="10.00">invmenu.h</text>
</a>
</g>
</g>
<!-- Node1&#45;&gt;Node6 -->
<g id="edge6_Node000001_Node000006" class="edge">
<title>Node1&#45;&gt;Node6</title>
<g id="a_edge6_Node000001_Node000006"><a xlink:title=" ">
<path fill="none" stroke="#63b8ff" d="M207.03,-167.59C215.32,-160.01 227.2,-149.13 237.15,-140.02"/>
<polygon fill="#63b8ff" stroke="#63b8ff" points="239.46,-142.65 244.47,-133.32 234.73,-137.49 239.46,-142.65"/>
</a>
</g>
</g>
<!-- Node9 -->
<g id="Node000009" class="node">
<title>Node9</title>
<g id="a_Node000009"><a xlink:href="reports_8h.html" target="_top" xlink:title=" ">
<polygon fill="white" stroke="#666666" points="358.88,-132 304.62,-132 304.62,-112 358.88,-112 358.88,-132"/>
<text xml:space="preserve" text-anchor="middle" x="331.75" y="-118.5" font-family="Helvetica,sans-Serif" font-size="10.00">reports.h</text>
</a>
</g>
</g>
<!-- Node1&#45;&gt;Node9 -->
<g id="edge10_Node000001_Node000009" class="edge">
<title>Node1&#45;&gt;Node9</title>
<g id="a_edge10_Node000001_Node000009"><a xlink:title=" ">
<path fill="none" stroke="#63b8ff" d="M220.27,-167.59C241.62,-159.05 273.38,-146.35 297.55,-136.68"/>
<polygon fill="#63b8ff" stroke="#63b8ff" points="298.66,-140.01 306.65,-133.04 296.06,-133.51 298.66,-140.01"/>
</a>
</g>
</g>
<!-- Node10 -->
<g id="Node000010" class="node">
<title>Node10</title>
<g id="a_Node000010"><a xlink:title=" ">
<polygon fill="#e0e0e0" stroke="#999999" points="416.38,-132 377.12,-132 377.12,-112 416.38,-112 416.38,-132"/>
<text xml:space="preserve" text-anchor="middle" x="396.75" y="-118.5" font-family="Helvetica,sans-Serif" font-size="10.00">limits</text>
</a>
</g>
</g>
<!-- Node1&#45;&gt;Node10 -->
<g id="edge13_Node000001_Node000010" class="edge">
<title>Node1&#45;&gt;Node10</title>
<g id="a_edge13_Node000001_Node000010"><a xlink:title=" ">
<path fill="none" stroke="#63b8ff" d="M234.58,-167.55C267.01,-159.34 315.22,-146.86 365.96,-132.42"/>
<polygon fill="#63b8ff" stroke="#63b8ff" points="366.71,-135.85 375.36,-129.73 364.78,-129.12 366.71,-135.85"/>
</a>
</g>
</g>
<!-- Node2&#45;&gt;Node3 -->
<g id="edge2_Node000002_Node000003" class="edge">
<title>Node2&#45;&gt;Node3</title>
<g id="a_edge2_Node000002_Node000003"><a xlink:title=" ">
<path fill="none" stroke="#63b8ff" d="M72.17,-111.59C64.52,-104.08 53.59,-93.35 44.37,-84.3"/>
<polygon fill="#63b8ff" stroke="#63b8ff" points="46.89,-81.87 37.3,-77.36 41.98,-86.86 46.89,-81.87"/>
</a>
</g>
</g>
<!-- Node2&#45;&gt;Node4 -->
<g id="edge3_Node000002_Node000004" class="edge">
<title>Node2&#45;&gt;Node4</title>
<g id="a_edge3_Node000002_Node000004"><a xlink:title=" ">
<path fill="none" stroke="#63b8ff" d="M88.43,-111.5C97.59,-98.63 114.76,-75.05 130.75,-56 138.62,-46.62 147.86,-36.63 155.66,-28.44"/>
<polygon fill="#63b8ff" stroke="#63b8ff" points="157.96,-31.11 162.39,-21.48 152.92,-26.24 157.96,-31.11"/>
</a>
</g>
</g>
<!-- Node5&#45;&gt;Node4 -->
<g id="edge5_Node000005_Node000004" class="edge">
<title>Node5&#45;&gt;Node4</title>
<g id="a_edge5_Node000005_Node000004"><a xlink:title=" ">
<path fill="none" stroke="#63b8ff" d="M195.87,-55.59C192.26,-48.63 187.21,-38.89 182.75,-30.29"/>
<polygon fill="#63b8ff" stroke="#63b8ff" points="185.98,-28.91 178.27,-21.64 179.76,-32.13 185.98,-28.91"/>
</a>
</g>
</g>
<!-- Node7 -->
<g id="Node000007" class="node">
<title>Node7</title>
<g id="a_Node000007"><a xlink:title=" ">
<polygon fill="#e0e0e0" stroke="#999999" points="289.25,-76 246.25,-76 246.25,-56 289.25,-56 289.25,-76"/>
<text xml:space="preserve" text-anchor="middle" x="267.75" y="-62.5" font-family="Helvetica,sans-Serif" font-size="10.00">vector</text>
</a>
</g>
</g>
<!-- Node6&#45;&gt;Node7 -->
<g id="edge7_Node000006_Node000007" class="edge">
<title>Node6&#45;&gt;Node7</title>
<g id="a_edge7_Node000006_Node000007"><a xlink:title=" ">
<path fill="none" stroke="#63b8ff" d="M257.84,-111.59C259.32,-104.93 261.36,-95.75 263.21,-87.44"/>
<polygon fill="#63b8ff" stroke="#63b8ff" points="266.6,-88.3 265.36,-77.78 259.77,-86.78 266.6,-88.3"/>
</a>
</g>
</g>
<!-- Node8 -->
<g id="Node000008" class="node">
<title>Node8</title>
<g id="a_Node000008"><a xlink:href="bookinfo_8h.html" target="_top" xlink:title=" ">
<polygon fill="white" stroke="#666666" points="368.25,-76 307.25,-76 307.25,-56 368.25,-56 368.25,-76"/>
<text xml:space="preserve" text-anchor="middle" x="337.75" y="-62.5" font-family="Helvetica,sans-Serif" font-size="10.00">bookinfo.h</text>
</a>
</g>
</g>
<!-- Node6&#45;&gt;Node8 -->
<g id="edge8_Node000006_Node000008" class="edge">
<title>Node6&#45;&gt;Node8</title>
<g id="a_edge8_Node000006_Node000008"><a xlink:title=" ">
<path fill="none" stroke="#63b8ff" d="M270.03,-111.59C282.19,-103.59 299.89,-91.93 314.15,-82.54"/>
<polygon fill="#63b8ff" stroke="#63b8ff" points="315.66,-85.73 322.09,-77.31 311.81,-79.89 315.66,-85.73"/>
</a>
</g>
</g>
<!-- Node8&#45;&gt;Node4 -->
<g id="edge9_Node000008_Node000004" class="edge">
<title>Node8&#45;&gt;Node4</title>
<g id="a_edge9_Node000008_Node000004"><a xlink:title=" ">
<path fill="none" stroke="#63b8ff" d="M309.01,-55.59C279.54,-45.95 233.85,-31 203.62,-21.1"/>
<polygon fill="#63b8ff" stroke="#63b8ff" points="204.89,-17.84 194.3,-18.05 202.71,-24.49 204.89,-17.84"/>
</a>
</g>
</g>
</g>
</svg>
