<?xml version="1.0" encoding="UTF-8" standalone="no"?>
<!DOCTYPE svg PUBLIC "-//W3C//DTD SVG 1.1//EN"
 "http://www.w3.org/Graphics/SVG/1.1/DTD/svg11.dtd">
<!-- Generated by graphviz version 13.1.2 (20250808.2320)
 -->
<!-- Title: menuhelpers.h Pages: 1 -->
<svg width="369pt" height="84pt"
 viewBox="0.00 0.00 369.00 84.00" xmlns="http://www.w3.org/2000/svg" xmlns:xlink="http://www.w3.org/1999/xlink">
<g id="graph0" class="graph" transform="scale(1 1) rotate(0) translate(4 80)">
<title>menuhelpers.h</title>
<!-- Node1 -->
<g id="Node000001" class="node">
<title>Node1</title>
<g id="a_Node000001"><a xlink:title="Provides helper functions for printing formatted menus and UI layout.">
<polygon fill="#999999" stroke="#666666" points="220.62,-76 140.88,-76 140.88,-56 220.62,-56 220.62,-76"/>
<text xml:space="preserve" text-anchor="middle" x="180.75" y="-62.5" font-family="Helvetica,sans-Serif" font-size="10.00">menuhelpers.h</text>
</a>
</g>
</g>
<!-- Node2 -->
<g id="Node000002" class="node">
<title>Node2</title>
<g id="a_Node000002"><a xlink:href="invmenu_8cpp.html" target="_top" xlink:title=" ">
<polygon fill="white" stroke="#666666" points="71.5,-20 0,-20 0,0 71.5,0 71.5,-20"/>
<text xml:space="preserve" text-anchor="middle" x="35.75" y="-6.5" font-family="Helvetica,sans-Serif" font-size="10.00">invmenu.cpp</text>
</a>
</g>
</g>
<!-- Node1&#45;&gt;Node2 -->
<g id="edge1_Node000001_Node000002" class="edge">
<title>Node1&#45;&gt;Node2</title>
<g id="a_edge1_Node000001_Node000002"><a xlink:title=" ">
<path fill="none" stroke="#63b8ff" d="M144.93,-51.66C118.94,-41.98 84.41,-29.12 61.2,-20.48"/>
<polygon fill="#63b8ff" stroke="#63b8ff" points="143.48,-54.86 154.07,-55.07 145.92,-48.3 143.48,-54.86"/>
</a>
</g>
</g>
<!-- Node3 -->
<g id="Node000003" class="node">
<title>Node3</title>
<g id="a_Node000003"><a xlink:href="mainmenu_8cpp.html" target="_top" xlink:title=" ">
<polygon fill="white" stroke="#666666" points="169.62,-20 89.88,-20 89.88,0 169.62,0 169.62,-20"/>
<text xml:space="preserve" text-anchor="middle" x="129.75" y="-6.5" font-family="Helvetica,sans-Serif" font-size="10.00">mainmenu.cpp</text>
</a>
</g>
</g>
<!-- Node1&#45;&gt;Node3 -->
<g id="edge2_Node000001_Node000003" class="edge">
<title>Node1&#45;&gt;Node3</title>
<g id="a_edge2_Node000001_Node000003"><a xlink:title=" ">
<path fill="none" stroke="#63b8ff" d="M164.02,-47.29C155.51,-38.28 145.52,-27.7 138.53,-20.3"/>
<polygon fill="#63b8ff" stroke="#63b8ff" points="161.42,-49.63 170.83,-54.49 166.51,-44.82 161.42,-49.63"/>
</a>
</g>
</g>
<!-- Node4 -->
<g id="Node000004" class="node">
<title>Node4</title>
<g id="a_Node000004"><a xlink:href="menuhelpers_8cpp.html" target="_top" xlink:title=" ">
<polygon fill="white" stroke="#666666" points="277.88,-20 187.62,-20 187.62,0 277.88,0 277.88,-20"/>
<text xml:space="preserve" text-anchor="middle" x="232.75" y="-6.5" font-family="Helvetica,sans-Serif" font-size="10.00">menuhelpers.cpp</text>
</a>
</g>
</g>
<!-- Node1&#45;&gt;Node4 -->
<g id="edge3_Node000001_Node000004" class="edge">
<title>Node1&#45;&gt;Node4</title>
<g id="a_edge3_Node000001_Node000004"><a xlink:title=" ">
<path fill="none" stroke="#63b8ff" d="M197.54,-47.57C206.27,-38.5 216.59,-27.78 223.8,-20.3"/>
<polygon fill="#63b8ff" stroke="#63b8ff" points="195.27,-44.87 190.86,-54.5 200.32,-49.73 195.27,-44.87"/>
</a>
</g>
</g>
<!-- Node5 -->
<g id="Node000005" class="node">
<title>Node5</title>
<g id="a_Node000005"><a xlink:href="reports_8cpp.html" target="_top" xlink:title=" ">
<polygon fill="white" stroke="#666666" points="361.12,-20 296.38,-20 296.38,0 361.12,0 361.12,-20"/>
<text xml:space="preserve" text-anchor="middle" x="328.75" y="-6.5" font-family="Helvetica,sans-Serif" font-size="10.00">reports.cpp</text>
</a>
</g>
</g>
<!-- Node1&#45;&gt;Node5 -->
<g id="edge4_Node000001_Node000005" class="edge">
<title>Node1&#45;&gt;Node5</title>
<g id="a_edge4_Node000001_Node000005"><a xlink:title=" ">
<path fill="none" stroke="#63b8ff" d="M217.31,-51.66C243.83,-41.98 279.08,-29.12 302.77,-20.48"/>
<polygon fill="#63b8ff" stroke="#63b8ff" points="216.15,-48.36 207.95,-55.08 218.55,-54.94 216.15,-48.36"/>
</a>
</g>
</g>
</g>
</svg>
