<?xml version="1.0" encoding="UTF-8" standalone="no"?>
<!DOCTYPE svg PUBLIC "-//W3C//DTD SVG 1.1//EN"
 "http://www.w3.org/Graphics/SVG/1.1/DTD/svg11.dtd">
<!-- Generated by graphviz version 13.1.2 (20250808.2320)
 -->
<!-- Title: menuhelpers.cpp Pages: 1 -->
<svg width="175pt" height="140pt"
 viewBox="0.00 0.00 175.00 140.00" xmlns="http://www.w3.org/2000/svg" xmlns:xlink="http://www.w3.org/1999/xlink">
<g id="graph0" class="graph" transform="scale(1 1) rotate(0) translate(4 136)">
<title>menuhelpers.cpp</title>
<!-- Node1 -->
<g id="Node000001" class="node">
<title>Node1</title>
<g id="a_Node000001"><a xlink:title=" ">
<polygon fill="#999999" stroke="#666666" points="144.88,-132 54.62,-132 54.62,-112 144.88,-112 144.88,-132"/>
<text xml:space="preserve" text-anchor="middle" x="99.75" y="-118.5" font-family="Helvetica,sans-Serif" font-size="10.00">menuhelpers.cpp</text>
</a>
</g>
</g>
<!-- Node2 -->
<g id="Node000002" class="node">
<title>Node2</title>
<g id="a_Node000002"><a xlink:href="menuhelpers_8h.html" target="_top" xlink:title="Provides helper functions for printing formatted menus and UI layout.">
<polygon fill="white" stroke="#666666" points="98.62,-76 18.88,-76 18.88,-56 98.62,-56 98.62,-76"/>
<text xml:space="preserve" text-anchor="middle" x="58.75" y="-62.5" font-family="Helvetica,sans-Serif" font-size="10.00">menuhelpers.h</text>
</a>
</g>
</g>
<!-- Node1&#45;&gt;Node2 -->
<g id="edge1_Node000001_Node000002" class="edge">
<title>Node1&#45;&gt;Node2</title>
<g id="a_edge1_Node000001_Node000002"><a xlink:title=" ">
<path fill="none" stroke="#63b8ff" d="M92.61,-111.59C87.14,-104.39 79.43,-94.23 72.74,-85.43"/>
<polygon fill="#63b8ff" stroke="#63b8ff" points="75.56,-83.35 66.73,-77.5 69.98,-87.58 75.56,-83.35"/>
</a>
</g>
</g>
<!-- Node5 -->
<g id="Node000005" class="node">
<title>Node5</title>
<g id="a_Node000005"><a xlink:title=" ">
<polygon fill="#e0e0e0" stroke="#999999" points="166.62,-76 116.88,-76 116.88,-56 166.62,-56 166.62,-76"/>
<text xml:space="preserve" text-anchor="middle" x="141.75" y="-62.5" font-family="Helvetica,sans-Serif" font-size="10.00">iomanip</text>
</a>
</g>
</g>
<!-- Node1&#45;&gt;Node5 -->
<g id="edge4_Node000001_Node000005" class="edge">
<title>Node1&#45;&gt;Node5</title>
<g id="a_edge4_Node000001_Node000005"><a xlink:title=" ">
<path fill="none" stroke="#63b8ff" d="M107.07,-111.59C112.73,-104.32 120.74,-94.02 127.64,-85.15"/>
<polygon fill="#63b8ff" stroke="#63b8ff" points="130.21,-87.54 133.59,-77.49 124.69,-83.24 130.21,-87.54"/>
</a>
</g>
</g>
<!-- Node3 -->
<g id="Node000003" class="node">
<title>Node3</title>
<g id="a_Node000003"><a xlink:title=" ">
<polygon fill="#e0e0e0" stroke="#999999" points="53.5,-20 0,-20 0,0 53.5,0 53.5,-20"/>
<text xml:space="preserve" text-anchor="middle" x="26.75" y="-6.5" font-family="Helvetica,sans-Serif" font-size="10.00">iostream</text>
</a>
</g>
</g>
<!-- Node2&#45;&gt;Node3 -->
<g id="edge2_Node000002_Node000003" class="edge">
<title>Node2&#45;&gt;Node3</title>
<g id="a_edge2_Node000002_Node000003"><a xlink:title=" ">
<path fill="none" stroke="#63b8ff" d="M53.18,-55.59C49,-48.55 43.15,-38.67 38.01,-30"/>
<polygon fill="#63b8ff" stroke="#63b8ff" points="41.14,-28.42 33.03,-21.6 35.12,-31.99 41.14,-28.42"/>
</a>
</g>
</g>
<!-- Node4 -->
<g id="Node000004" class="node">
<title>Node4</title>
<g id="a_Node000004"><a xlink:title=" ">
<polygon fill="#e0e0e0" stroke="#999999" points="111.75,-20 71.75,-20 71.75,0 111.75,0 111.75,-20"/>
<text xml:space="preserve" text-anchor="middle" x="91.75" y="-6.5" font-family="Helvetica,sans-Serif" font-size="10.00">string</text>
</a>
</g>
</g>
<!-- Node2&#45;&gt;Node4 -->
<g id="edge3_Node000002_Node000004" class="edge">
<title>Node2&#45;&gt;Node4</title>
<g id="a_edge3_Node000002_Node000004"><a xlink:title=" ">
<path fill="none" stroke="#63b8ff" d="M64.5,-55.59C68.8,-48.55 74.84,-38.67 80.14,-30"/>
<polygon fill="#63b8ff" stroke="#63b8ff" points="83.05,-31.95 85.28,-21.59 77.08,-28.3 83.05,-31.95"/>
</a>
</g>
</g>
</g>
</svg>
