<?xml version="1.0" encoding="UTF-8" standalone="no"?>
<!DOCTYPE svg PUBLIC "-//W3C//DTD SVG 1.1//EN"
 "http://www.w3.org/Graphics/SVG/1.1/DTD/svg11.dtd">
<!-- Generated by graphviz version 13.1.2 (20250808.2320)
 -->
<!-- Title: reports.cpp Pages: 1 -->
<svg width="275pt" height="140pt"
 viewBox="0.00 0.00 275.00 140.00" xmlns="http://www.w3.org/2000/svg" xmlns:xlink="http://www.w3.org/1999/xlink">
<g id="graph0" class="graph" transform="scale(1 1) rotate(0) translate(4 136)">
<title>reports.cpp</title>
<!-- Node1 -->
<g id="Node000001" class="node">
<title>Node1</title>
<g id="a_Node000001"><a xlink:title=" ">
<polygon fill="#999999" stroke="#666666" points="160.12,-132 95.38,-132 95.38,-112 160.12,-112 160.12,-132"/>
<text xml:space="preserve" text-anchor="middle" x="127.75" y="-118.5" font-family="Helvetica,sans-Serif" font-size="10.00">reports.cpp</text>
</a>
</g>
</g>
<!-- Node2 -->
<g id="Node000002" class="node">
<title>Node2</title>
<g id="a_Node000002"><a xlink:href="menuhelpers_8h.html" target="_top" xlink:title="Provides helper functions for printing formatted menus and UI layout.">
<polygon fill="white" stroke="#666666" points="99.62,-76 19.88,-76 19.88,-56 99.62,-56 99.62,-76"/>
<text xml:space="preserve" text-anchor="middle" x="59.75" y="-62.5" font-family="Helvetica,sans-Serif" font-size="10.00">menuhelpers.h</text>
</a>
</g>
</g>
<!-- Node1&#45;&gt;Node2 -->
<g id="edge1_Node000001_Node000002" class="edge">
<title>Node1&#45;&gt;Node2</title>
<g id="a_edge1_Node000001_Node000002"><a xlink:title=" ">
<path fill="none" stroke="#63b8ff" d="M115.91,-111.59C106.06,-103.77 91.82,-92.46 80.14,-83.19"/>
<polygon fill="#63b8ff" stroke="#63b8ff" points="82.65,-80.72 72.64,-77.24 78.3,-86.2 82.65,-80.72"/>
</a>
</g>
</g>
<!-- Node3 -->
<g id="Node000003" class="node">
<title>Node3</title>
<g id="a_Node000003"><a xlink:title=" ">
<polygon fill="#e0e0e0" stroke="#999999" points="53.5,-20 0,-20 0,0 53.5,0 53.5,-20"/>
<text xml:space="preserve" text-anchor="middle" x="26.75" y="-6.5" font-family="Helvetica,sans-Serif" font-size="10.00">iostream</text>
</a>
</g>
</g>
<!-- Node1&#45;&gt;Node3 -->
<g id="edge5_Node000001_Node000003" class="edge">
<title>Node1&#45;&gt;Node3</title>
<g id="a_edge5_Node000001_Node000003"><a xlink:title=" ">
<path fill="none" stroke="#63b8ff" d="M95.05,-118.3C67.46,-114.09 29.54,-103.36 10.75,-76 1.41,-62.39 7.35,-43.88 14.5,-30.09"/>
<polygon fill="#63b8ff" stroke="#63b8ff" points="17.47,-31.94 19.47,-21.53 11.42,-28.43 17.47,-31.94"/>
</a>
</g>
</g>
<!-- Node4 -->
<g id="Node000004" class="node">
<title>Node4</title>
<g id="a_Node000004"><a xlink:title=" ">
<polygon fill="#e0e0e0" stroke="#999999" points="112.75,-20 72.75,-20 72.75,0 112.75,0 112.75,-20"/>
<text xml:space="preserve" text-anchor="middle" x="92.75" y="-6.5" font-family="Helvetica,sans-Serif" font-size="10.00">string</text>
</a>
</g>
</g>
<!-- Node1&#45;&gt;Node4 -->
<g id="edge6_Node000001_Node000004" class="edge">
<title>Node1&#45;&gt;Node4</title>
<g id="a_edge6_Node000001_Node000004"><a xlink:title=" ">
<path fill="none" stroke="#63b8ff" d="M125.21,-111.69C121.71,-99.03 115.12,-75.69 108.75,-56 106.07,-47.72 102.9,-38.67 100.09,-30.87"/>
<polygon fill="#63b8ff" stroke="#63b8ff" points="103.45,-29.87 96.73,-21.68 96.88,-32.27 103.45,-29.87"/>
</a>
</g>
</g>
<!-- Node5 -->
<g id="Node000005" class="node">
<title>Node5</title>
<g id="a_Node000005"><a xlink:href="reports_8h.html" target="_top" xlink:title=" ">
<polygon fill="white" stroke="#666666" points="209.88,-76 155.62,-76 155.62,-56 209.88,-56 209.88,-76"/>
<text xml:space="preserve" text-anchor="middle" x="182.75" y="-62.5" font-family="Helvetica,sans-Serif" font-size="10.00">reports.h</text>
</a>
</g>
</g>
<!-- Node1&#45;&gt;Node5 -->
<g id="edge4_Node000001_Node000005" class="edge">
<title>Node1&#45;&gt;Node5</title>
<g id="a_edge4_Node000001_Node000005"><a xlink:title=" ">
<path fill="none" stroke="#63b8ff" d="M137.33,-111.59C144.98,-104.08 155.91,-93.35 165.13,-84.3"/>
<polygon fill="#63b8ff" stroke="#63b8ff" points="167.52,-86.86 172.2,-77.36 162.61,-81.87 167.52,-86.86"/>
</a>
</g>
</g>
<!-- Node6 -->
<g id="Node000006" class="node">
<title>Node6</title>
<g id="a_Node000006"><a xlink:title=" ">
<polygon fill="#e0e0e0" stroke="#999999" points="267.38,-76 228.12,-76 228.12,-56 267.38,-56 267.38,-76"/>
<text xml:space="preserve" text-anchor="middle" x="247.75" y="-62.5" font-family="Helvetica,sans-Serif" font-size="10.00">limits</text>
</a>
</g>
</g>
<!-- Node1&#45;&gt;Node6 -->
<g id="edge7_Node000001_Node000006" class="edge">
<title>Node1&#45;&gt;Node6</title>
<g id="a_edge7_Node000001_Node000006"><a xlink:title=" ">
<path fill="none" stroke="#63b8ff" d="M148.65,-111.59C167.72,-103.01 196.13,-90.23 217.65,-80.55"/>
<polygon fill="#63b8ff" stroke="#63b8ff" points="218.82,-83.86 226.5,-76.56 215.95,-77.47 218.82,-83.86"/>
</a>
</g>
</g>
<!-- Node2&#45;&gt;Node3 -->
<g id="edge2_Node000002_Node000003" class="edge">
<title>Node2&#45;&gt;Node3</title>
<g id="a_edge2_Node000002_Node000003"><a xlink:title=" ">
<path fill="none" stroke="#63b8ff" d="M54,-55.59C49.7,-48.55 43.66,-38.67 38.36,-30"/>
<polygon fill="#63b8ff" stroke="#63b8ff" points="41.42,-28.3 33.22,-21.59 35.45,-31.95 41.42,-28.3"/>
</a>
</g>
</g>
<!-- Node2&#45;&gt;Node4 -->
<g id="edge3_Node000002_Node000004" class="edge">
<title>Node2&#45;&gt;Node4</title>
<g id="a_edge3_Node000002_Node000004"><a xlink:title=" ">
<path fill="none" stroke="#63b8ff" d="M65.5,-55.59C69.8,-48.55 75.84,-38.67 81.14,-30"/>
<polygon fill="#63b8ff" stroke="#63b8ff" points="84.05,-31.95 86.28,-21.59 78.08,-28.3 84.05,-31.95"/>
</a>
</g>
</g>
</g>
</svg>
